<?xml version="1.0" encoding="utf-8"?>
<!-- Generator: Adobe Illustrator 19.0.0, SVG Export Plug-In . SVG Version: 6.00 Build 0)  -->
<svg version="1.1" id="Layer_1" xmlns="http://www.w3.org/2000/svg" xmlns:xlink="http://www.w3.org/1999/xlink" x="0px" y="0px"
	 viewBox="0 0 891.5 891.5" style="enable-background:new 0 0 891.5 891.5;" xml:space="preserve">
<rect id="XMLID_1_" x="75.9" y="1.3" style="display:none;fill:#640D0D;stroke:#000000;stroke-miterlimit:10;" width="621.9" height="799.6"/>
<rect id="XMLID_2_" x="122.4" y="46.5" style="display:none;fill:#640D0D;stroke:#FFFFFF;stroke-width:20;stroke-miterlimit:10;" width="621.9" height="799.6"/>
<rect id="XMLID_3_" x="175.6" y="103.5" style="display:none;fill:#640D0D;stroke:#FFFFFF;stroke-width:20;stroke-miterlimit:10;" width="621.9" height="799.6"/>
<rect id="XMLID_5_" x="186" y="113.6" style="fill:#1A3865;" width="598.6" height="778.5"/>
<line id="XMLID_6_" style="fill:#640D0D;stroke:#1A3865;stroke-width:37;stroke-miterlimit:10;" x1="732.6" y1="74.6" x2="132.1" y2="74.6"/>
<line id="XMLID_7_" style="fill:#640D0D;stroke:#1A3865;stroke-width:37;stroke-miterlimit:10;" x1="695.1" y1="18.6" x2="75.9" y2="18.6"/>
<line id="XMLID_8_" style="fill:#640D0D;stroke:#1A3865;stroke-width:37;stroke-miterlimit:10;" x1="93.8" y1="1.3" x2="93.8" y2="801.4"/>
<line id="XMLID_9_" style="fill:#640D0D;stroke:#1A3865;stroke-width:34;stroke-miterlimit:10;" x1="148.3" y1="57.6" x2="148.3" y2="834"/>
<g id="XMLID_4_">
	<path id="XMLID_37_" style="fill:#F5F5F5;" d="M371.5,726.6l75.8-11.5V312.6l-100.1,7.7L325.1,383l-45.4,1.9l7.7-118.1h407.9
		l-0.6,116.5l-37.1,4.2l-21.1-67.2l-97.9-7.7v402.2l76.8,11.8v37.1H371.5V726.6z"/>
</g>
<g id="XMLID_36_">
</g>
<g id="XMLID_39_">
</g>
<g id="XMLID_40_">
</g>
<g id="XMLID_41_">
</g>
<g id="XMLID_42_">
</g>
<g id="XMLID_43_">
</g>
</svg>
